# xmcd CD database file
#
# Track frame offsets:
#	150
#	22655
#	33785
#
# Disc length: 609 seconds
#
# Revision: 0
# Processed by: cddbd v1.5.2PL0 Copyright (c) Steve Scherf et al.
# Submitted via: CDex 1.70beta2
#
DISCID=10025f03
DTITLE=Iris DeMent - Our Town (Maxi)
DYEAR=1992
DGENRE=Country
TTITLE0=Our Town
TTITLE1=God May Forgive You (But I Won't)
TTITLE2=Heart's Highway
EXTD=YEAR: 1992
EXTT0=
EXTT1=
EXTT2=
PLAYORDER=
